<svg width="100" height="100" viewBox="0 0 100 100" fill="none" xmlns="http://www.w3.org/2000/svg">
<path d="M10 41.5C10 24.6553 23.6553 11 40.5 11C57.3447 11 71 24.6553 71 41.5C71 58.3447 57.3447 72 40.5 72C23.6553 72 10 58.3447 10 41.5Z" fill="url(#paint0_linear_661_707)"/>
<g filter="url(#filter0_ii_661_707)">
<path fill-rule="evenodd" clip-rule="evenodd" d="M10 41.5C10 24.6553 23.6553 11 40.5 11C57.3447 11 71 24.6553 71 41.5C71 48.8419 68.4058 55.578 64.0841 60.8415L84.1213 80.8787C85.2929 82.0503 85.2929 83.9497 84.1213 85.1213C82.9497 86.2929 81.0503 86.2929 79.8787 85.1213L59.8415 65.0841C54.578 69.4058 47.8419 72 40.5 72C23.6553 72 10 58.3447 10 41.5ZM40.5 66C26.969 66 16 55.031 16 41.5C16 27.969 26.969 17 40.5 17C54.031 17 65 27.969 65 41.5C65 55.031 54.031 66 40.5 66Z" fill="url(#paint1_linear_661_707)"/>
</g>
<defs>
<filter id="filter0_ii_661_707" x="10" y="11" width="75" height="79" filterUnits="userSpaceOnUse" color-interpolation-filters="sRGB">
<feFlood flood-opacity="0" result="BackgroundImageFix"/>
<feBlend mode="normal" in="SourceGraphic" in2="BackgroundImageFix" result="shape"/>
<feColorMatrix in="SourceAlpha" type="matrix" values="0 0 0 0 0 0 0 0 0 0 0 0 0 0 0 0 0 0 127 0" result="hardAlpha"/>
<feOffset dy="3"/>
<feGaussianBlur stdDeviation="3.5"/>
<feComposite in2="hardAlpha" operator="arithmetic" k2="-1" k3="1"/>
<feColorMatrix type="matrix" values="0 0 0 0 0.0666667 0 0 0 0 0.0627451 0 0 0 0 0.0588235 0 0 0 0.14 0"/>
<feBlend mode="normal" in2="shape" result="effect1_innerShadow_661_707"/>
<feColorMatrix in="SourceAlpha" type="matrix" values="0 0 0 0 0 0 0 0 0 0 0 0 0 0 0 0 0 0 127 0" result="hardAlpha"/>
<feOffset dy="4"/>
<feGaussianBlur stdDeviation="9.5"/>
<feComposite in2="hardAlpha" operator="arithmetic" k2="-1" k3="1"/>
<feColorMatrix type="matrix" values="0 0 0 0 0.0666667 0 0 0 0 0.0627451 0 0 0 0 0.0588235 0 0 0 0.14 0"/>
<feBlend mode="normal" in2="effect1_innerShadow_661_707" result="effect2_innerShadow_661_707"/>
</filter>
<linearGradient id="paint0_linear_661_707" x1="52.1728" y1="15.142" x2="37.4877" y2="72" gradientUnits="userSpaceOnUse">
<stop stop-color="#E3E3E3"/>
<stop offset="1" stop-color="#C9C9C9"/>
</linearGradient>
<linearGradient id="paint1_linear_661_707" x1="63.629" y1="11" x2="37.9237" y2="92.8061" gradientUnits="userSpaceOnUse">
<stop stop-color="#D1D1D1"/>
<stop offset="1" stop-color="#B3B0AD"/>
<stop offset="1" stop-color="#B3B3B3"/>
</linearGradient>
</defs>
</svg>
