<svg width="100" height="100" viewBox="0 0 100 100" fill="none" xmlns="http://www.w3.org/2000/svg">
<g filter="url(#filter0_ii_661_746)">
<path d="M90 50C90 72.0914 72.0914 90 50 90C27.9086 90 10 72.0914 10 50C10 27.9086 27.9086 10 50 10C72.0914 10 90 27.9086 90 50Z" fill="url(#paint0_linear_661_746)"/>
</g>
<path d="M50 28C47.7909 28 46 29.7909 46 32V52C46 54.2091 47.7909 56 50 56C52.2091 56 54 54.2091 54 52V32C54 29.7909 52.2091 28 50 28Z" fill="#D9D9D9"/>
<path d="M50 28C47.7909 28 46 29.7909 46 32V52C46 54.2091 47.7909 56 50 56C52.2091 56 54 54.2091 54 52V32C54 29.7909 52.2091 28 50 28Z" fill="url(#paint1_linear_661_746)"/>
<path d="M50 62C47.2386 62 45 64.2386 45 67C45 69.7614 47.2386 72 50 72C52.7614 72 55 69.7614 55 67C55 64.2386 52.7614 62 50 62Z" fill="#D9D9D9"/>
<path d="M50 62C47.2386 62 45 64.2386 45 67C45 69.7614 47.2386 72 50 72C52.7614 72 55 69.7614 55 67C55 64.2386 52.7614 62 50 62Z" fill="url(#paint2_linear_661_746)"/>
<defs>
<filter id="filter0_ii_661_746" x="10" y="10" width="80" height="84" filterUnits="userSpaceOnUse" color-interpolation-filters="sRGB">
<feFlood flood-opacity="0" result="BackgroundImageFix"/>
<feBlend mode="normal" in="SourceGraphic" in2="BackgroundImageFix" result="shape"/>
<feColorMatrix in="SourceAlpha" type="matrix" values="0 0 0 0 0 0 0 0 0 0 0 0 0 0 0 0 0 0 127 0" result="hardAlpha"/>
<feOffset dy="3"/>
<feGaussianBlur stdDeviation="3.5"/>
<feComposite in2="hardAlpha" operator="arithmetic" k2="-1" k3="1"/>
<feColorMatrix type="matrix" values="0 0 0 0 0.0666667 0 0 0 0 0.0627451 0 0 0 0 0.0588235 0 0 0 0.2 0"/>
<feBlend mode="normal" in2="shape" result="effect1_innerShadow_661_746"/>
<feColorMatrix in="SourceAlpha" type="matrix" values="0 0 0 0 0 0 0 0 0 0 0 0 0 0 0 0 0 0 127 0" result="hardAlpha"/>
<feOffset dy="4"/>
<feGaussianBlur stdDeviation="9.5"/>
<feComposite in2="hardAlpha" operator="arithmetic" k2="-1" k3="1"/>
<feColorMatrix type="matrix" values="0 0 0 0 0.0666667 0 0 0 0 0.0627451 0 0 0 0 0.0588235 0 0 0 0.2 0"/>
<feBlend mode="normal" in2="effect1_innerShadow_661_746" result="effect2_innerShadow_661_746"/>
</filter>
<linearGradient id="paint0_linear_661_746" x1="67.2043" y1="10" x2="39.7852" y2="97.2599" gradientUnits="userSpaceOnUse">
<stop stop-color="#C6C6C6"/>
<stop offset="0.943117" stop-color="#919191"/>
</linearGradient>
<linearGradient id="paint1_linear_661_746" x1="50.6058" y1="39.8914" x2="37.3855" y2="59.3585" gradientUnits="userSpaceOnUse">
<stop stop-color="white"/>
<stop offset="1" stop-color="#F1F1F1"/>
</linearGradient>
<linearGradient id="paint2_linear_661_746" x1="50.6058" y1="39.8914" x2="37.3855" y2="59.3585" gradientUnits="userSpaceOnUse">
<stop stop-color="white"/>
<stop offset="1" stop-color="#F1F1F1"/>
</linearGradient>
</defs>
</svg>
